{"title":"Looper (2012) R5.DVDRip.XVID.AC3.HQ.Hive-CM8","uid":7841407,"size":1898092200,"categoryP":"video","categoryS":"movies","magnet":"?xt=urn:btih:07100d252a70ad4a37895d884351ff90ab0fadba&amp;dn=+Looper+%282012%29+R5.DVDRip.XVID.AC3.HQ.Hive-CM8&amp;tr=udp%3A%2F%2Ftracker.openbittorrent.com%3A80&amp;tr=udp%3A%2F%2Fopen.demonii.com%3A1337&amp;tr=udp%3A%2F%2Ftracker.coppersurfer.tk%3A6969&amp;tr=udp%3A%2F%2Fexodus.desync.com%3A6969","seeders":0,"leechers":0,"uploader":"kippenvel","files":4,"time":1353346937,"description":"Omschrijving:\nLooper.2012.R5.DVDRip.XVID.AC3.HQ.Hive-CM8\n\n\nThx Hive\n\nCM8 Doing It Right The First Time\n\n\nSOURCE\nRussian DVD-R (Petlja.vremeni.2012.DVD.D)\n\n\nNOTES\nFirst i want to say: no, the source is not a new dvd-r, the russian dvd-r is identical to the ltu version,\nthey just didnt tag it right and the follow up encoders tagged it wrong too to hide what it was, it was a\nr5 from the first second, and one of the lower ones with the typical problems, all reddish, colours wrong,\ntoo bright on daylight scenes, gamma, hue, saturation, colours all was wrong terrible i can tell, at least\nno subs like on the korean release. but it came along with english studio audio.\nsince the retail is far away i gave it a try.\n\n\nENCODE\ntook me 4 nights to do a perfect version, hrs of work, it was torture, but finally the 8th version is the one to get here.\ntried a couple different approaches, all were ok but not perfect, problem was by restoring the colours and getting rid of\nthat reddish the other colours got problems too, and dark scenes got other influenced than scenes at daylight and\nbroad daylight. had no other choice than to cut the movie in pieces, and treat every piece different as needed.\nbtw: the sky is now blue and not greyreddish\n\nsince i wont release a version i am not 100% sure its perfect it took me 4 days to do so. like i said before i had to make\ncouple versions to get it done, also there is an audio problem from 4m30s to 6m19sec, the audio sounds strange and hollow\nat that timeframe, thought when i am already doing that version i can fix that too, so i cut out theaudiopart from the\nkorean subbed release since it was also 5.1 audio, but it didnt work because the audio on the korean version wasnt 5.1\njust a fake upmix 4 channels were empty and inside just stereo, so i had to cut the voices into the r5 audiotrack and\ninsert it back into the movie to get a 5.1 track thats perfect now too.\n\nall in all hrs of work, but the movie is nice and deserves a quality version\nwill do me till bluray comes along\nhope you enjoy\n\nVideo...: 720x304 @bitrate 1700 2pass\nAudio...: English AC3 5.1 @448\nSample..: Yes, included\n\n &lt;a href=&quot;\nhttp://www.imdb.com/title/tt1276104/&quot; rel=&quot;nofollow&quot; target=&quot;_NEW&quot;&gt;\nhttp://www.imdb.com/title/tt1276104/&lt;/a&gt;\n\n\nGeneral\nComplete name : Looper.2012.R5.DVDRip.XVID.AC3.HQ.Hive-CM8.avi\nFormat : AVI\nFormat/Info : Audio Video Interleave\nFile size : 1.75 GiB\nDuration: 1h 53mn\nOverall bit rate : 2 198 Kbps\nWriting application : Nandub v1.0rc2\nWriting library : Nandub build 1853/release\n\nVideo\nID : 0\nFormat : MPEG-4 Visual\nFormat profile : Advanced Simple@L5\nFormat settings, BVOP : 2\nFormat settings, QPel : Yes\nFormat settings, GMC : No warppoints\nFormat settings, Matrix : Default (H.263)\nMuxing mode : Packed bitstream\nCodec ID : XVID\nCodec ID/Hint : XviD\nDuration : 1h 53mn\nBit rate : 1 740 Kbps\nWidth : 720 pixels\nHeight : 304 pixels\nDisplay aspect ratio : 2.35:1\nFrame rate :25.000 fps\nColor space : YUV\nChroma subsampling : 4:2:0\nBit depth : 8 bits\nScan type : Progressive\nCompression mode : Lossy\nBits/(Pixel*Frame) : 0.318\nStream size : 1.38 GiB (79%)\nWriting library : XviD 1.2.1 (UTC 2008-12-04)\n\nAudio\nID : 1\nFormat : AC-3\nFormat/Info : Audio Coding 3\nMode extension : CM (complete main)\nFormat settings, Endianness : Big\nCodec ID : 2000\nDuration : 1h 53mn\nBit rate mode : Constant\nBit rate : 448 Kbps\nChannel(s) : 6 channels\nChannel positions : Front: L C R, Side: L R, LFE\nSampling rate : 48.0 KHz\nBit depth : 16 bits\nCompression mode : Lossy\nStream size : 364 MiB (20%)\nAlignment : Split accross interleaves\nInterleave, duration : 40 ms (1.00 video frame)\nInterleave, preload duration : 500 ms\n\n\nPLOT\nIn 2074, when the mob wants to get rid of someone, the target is sent 30 years into the past,\nwhere a hired gun awaits. Someone like Joe, who one day learns the mob wants to 'close the\nloop' by transporting back Joe's future self.\n\n\nCAST\nJoseph Gordon-Levitt ... Joe\nBruce Willis ... Old Joe\nEmily Blunt ... Sara","torrent":{"xt":"urn:btih:07100d252a70ad4a37895d884351ff90ab0fadba","amp;dn":"+Looper+%282012%29+R5.DVDRip.XVID.AC3.HQ.Hive-CM8","amp;tr":["udp%3A%2F%2Ftracker.openbittorrent.com%3A80","udp%3A%2F%2Fopen.demonii.com%3A1337","udp%3A%2F%2Ftracker.coppersurfer.tk%3A6969","udp%3A%2F%2Fexodus.desync.com%3A6969"],"infoHash":"07100d252a70ad4a37895d884351ff90ab0fadba","infoHashBuffer":{"type":"Buffer","data":[7,16,13,37,42,112,173,74,55,137,93,136,67,81,255,144,171,15,173,186]},"announce":[],"urlList":[]}}